<?xml version="1.0" encoding="utf-8"?>
<!-- Generator: Adobe Illustrator 16.0.0, SVG Export Plug-In . SVG Version: 6.00 Build 0)  -->
<!DOCTYPE svg PUBLIC "-//W3C//DTD SVG 1.1//EN" "http://www.w3.org/Graphics/SVG/1.1/DTD/svg11.dtd">
<svg version="1.1" id="Layer_1" xmlns="http://www.w3.org/2000/svg" xmlns:xlink="http://www.w3.org/1999/xlink" x="0px" y="0px"
	 width="239.947px" height="27.733px" viewBox="0 0 239.947 27.733" enable-background="new 0 0 239.947 27.733"
	 xml:space="preserve">
<g>
	<path d="M34.342,18.289v-0.864c0-0.176,0.088-0.264,0.264-0.264h0.696c0.176,0,0.264,0.088,0.264,0.264v0.792
		c0,1.6,0.776,2.4,2.328,2.4h2.496c1.552,0,2.328-0.808,2.328-2.424v-1.008c0-0.704-0.288-1.256-0.864-1.656
		s-1.272-0.688-2.088-0.864c-0.816-0.176-1.636-0.36-2.46-0.552c-0.824-0.192-1.524-0.544-2.1-1.056
		c-0.576-0.512-0.864-1.2-0.864-2.064v-1.32c0-1.056,0.304-1.888,0.912-2.496c0.608-0.608,1.432-0.912,2.472-0.912h2.784
		c1.04,0,1.864,0.304,2.472,0.912c0.608,0.608,0.912,1.44,0.912,2.496v0.672c0,0.176-0.088,0.264-0.264,0.264h-0.696
		c-0.176,0-0.264-0.088-0.264-0.264v-0.6c0-1.6-0.776-2.4-2.328-2.4H37.87c-1.536,0-2.304,0.816-2.304,2.448v1.2
		c0,1.104,0.984,1.848,2.952,2.232c0.816,0.16,1.636,0.344,2.46,0.552c0.824,0.208,1.524,0.584,2.1,1.128
		c0.576,0.544,0.864,1.28,0.864,2.208v1.176c0,1.056-0.304,1.888-0.912,2.496c-0.608,0.608-1.432,0.912-2.472,0.912h-2.832
		c-1.041,0-1.864-0.304-2.472-0.912C34.646,20.177,34.342,19.345,34.342,18.289z"/>
	<path d="M51.286,21.697H50.59c-0.176,0-0.264-0.096-0.264-0.288V7.561c0-0.144-0.08-0.216-0.24-0.216h-3.48
		c-0.192,0-0.288-0.088-0.288-0.264V6.529c0-0.176,0.096-0.264,0.288-0.264h8.64c0.192,0,0.288,0.088,0.288,0.264v0.552
		c0,0.176-0.096,0.264-0.288,0.264h-3.48c-0.16,0-0.24,0.072-0.24,0.216v13.848C51.526,21.601,51.445,21.697,51.286,21.697z"/>
	<path d="M57.598,21.697h-0.744c-0.176,0-0.232-0.096-0.168-0.288l4.776-14.856c0.048-0.192,0.16-0.288,0.336-0.288h1.128
		c0.16,0,0.272,0.096,0.336,0.288l4.776,14.856c0.048,0.192-0.008,0.288-0.168,0.288h-0.768c-0.16,0-0.264-0.096-0.312-0.288
		l-1.296-3.84h-6.288l-1.296,3.84C57.846,21.601,57.742,21.697,57.598,21.697z M62.302,7.585l-2.76,8.904h5.64l-2.784-8.904H62.302z
		"/>
	<path d="M71.734,21.697h-0.696c-0.16,0-0.24-0.096-0.24-0.288V6.553c0-0.192,0.08-0.288,0.24-0.288h5.472
		c1.04,0,1.864,0.304,2.472,0.912c0.608,0.608,0.912,1.44,0.912,2.496v2.28c0,0.896-0.228,1.632-0.684,2.208
		c-0.456,0.576-1.076,0.944-1.86,1.104v0.096l2.856,6.048c0.096,0.192,0.04,0.288-0.168,0.288h-0.744
		c-0.208,0-0.352-0.096-0.432-0.288l-2.832-6.048h-3.792c-0.16,0-0.24,0.072-0.24,0.216v5.832
		C71.998,21.601,71.91,21.697,71.734,21.697z M72.238,14.329h4.152c0.736,0,1.304-0.204,1.704-0.612s0.6-0.988,0.6-1.74V9.721
		c0-0.752-0.2-1.335-0.6-1.752c-0.4-0.416-0.968-0.624-1.704-0.624h-4.152c-0.16,0-0.24,0.072-0.24,0.216v6.552
		C71.998,14.257,72.078,14.329,72.238,14.329z"/>
	<path d="M90.958,21.697h-0.696c-0.16,0-0.24-0.096-0.24-0.288V6.553c0-0.192,0.08-0.288,0.24-0.288h0.696
		c0.176,0,0.264,0.096,0.264,0.288v6.552c0,0.144,0.08,0.216,0.24,0.216h6.72c0.16,0,0.24-0.072,0.24-0.216V6.553
		c0-0.192,0.08-0.288,0.24-0.288h0.696c0.176,0,0.264,0.096,0.264,0.288v14.856c0,0.192-0.088,0.288-0.264,0.288h-0.696
		c-0.16,0-0.24-0.096-0.24-0.288v-6.792c0-0.144-0.08-0.216-0.24-0.216h-6.72c-0.16,0-0.24,0.072-0.24,0.216v6.792
		C91.222,21.601,91.133,21.697,90.958,21.697z"/>
	<path d="M109.773,21.697h-2.952c-1.041,0-1.86-0.304-2.46-0.912c-0.6-0.608-0.9-1.44-0.9-2.496V9.673c0-1.056,0.3-1.888,0.9-2.496
		c0.6-0.608,1.419-0.912,2.46-0.912h2.952c1.04,0,1.86,0.304,2.46,0.912c0.6,0.608,0.9,1.44,0.9,2.496v8.616
		c0,1.056-0.3,1.888-0.9,2.496C111.633,21.394,110.813,21.697,109.773,21.697z M106.917,20.617h2.736c0.735,0,1.3-0.204,1.692-0.612
		c0.392-0.408,0.588-0.996,0.588-1.764v-8.52c0-0.768-0.196-1.356-0.588-1.764c-0.392-0.408-0.957-0.612-1.692-0.612h-2.736
		c-0.736,0-1.296,0.208-1.68,0.624c-0.384,0.417-0.576,1-0.576,1.752v8.52c0,0.752,0.192,1.336,0.576,1.752
		C105.621,20.41,106.181,20.617,106.917,20.617z"/>
	<path d="M124.845,21.697h-7.632c-0.16,0-0.24-0.096-0.24-0.288V6.553c0-0.192,0.08-0.288,0.24-0.288h0.696
		c0.176,0,0.264,0.096,0.264,0.288v13.8c0,0.144,0.08,0.216,0.24,0.216h6.432c0.192,0,0.288,0.088,0.288,0.264v0.6
		C125.133,21.609,125.037,21.697,124.845,21.697z"/>
	<path d="M127.797,21.409V6.553c0-0.192,0.08-0.288,0.24-0.288h5.928c1.04,0,1.86,0.304,2.46,0.912c0.6,0.608,0.9,1.44,0.9,2.496
		v8.616c0,1.056-0.3,1.888-0.9,2.496c-0.6,0.608-1.42,0.912-2.46,0.912h-5.928C127.877,21.697,127.797,21.601,127.797,21.409z
		 M129.237,20.617h4.608c0.736,0,1.3-0.204,1.692-0.612c0.392-0.408,0.588-0.996,0.588-1.764v-8.52c0-0.768-0.196-1.356-0.588-1.764
		c-0.392-0.408-0.956-0.612-1.692-0.612h-4.608c-0.16,0-0.24,0.072-0.24,0.216v12.84C128.997,20.545,129.077,20.617,129.237,20.617z
		"/>
	<path d="M148.82,21.697h-7.416c-0.16,0-0.24-0.096-0.24-0.288V6.553c0-0.192,0.08-0.288,0.24-0.288h7.416
		c0.192,0,0.288,0.088,0.288,0.264v0.552c0,0.176-0.096,0.264-0.288,0.264h-6.216c-0.16,0-0.24,0.072-0.24,0.216v5.52
		c0,0.144,0.08,0.216,0.24,0.216h5.544c0.176,0,0.264,0.088,0.264,0.264v0.552c0,0.176-0.088,0.264-0.264,0.264h-5.544
		c-0.16,0-0.24,0.072-0.24,0.216v5.808c0,0.144,0.08,0.216,0.24,0.216h6.216c0.192,0,0.288,0.088,0.288,0.264v0.552
		C149.108,21.609,149.013,21.697,148.82,21.697z"/>
	<path d="M153.644,21.697h-0.696c-0.16,0-0.24-0.096-0.24-0.288V6.553c0-0.192,0.08-0.288,0.24-0.288h0.648
		c0.144,0,0.24,0.048,0.288,0.144l7.368,12.672h0.096V6.553c0-0.192,0.087-0.288,0.264-0.288h0.672c0.176,0,0.264,0.096,0.264,0.288
		v14.856c0,0.192-0.088,0.288-0.264,0.288h-0.552c-0.144,0-0.272-0.088-0.384-0.264l-7.344-12.576h-0.096v12.552
		C153.908,21.601,153.82,21.697,153.644,21.697z"/>
	<path d="M172.916,18.289v-0.864c0-0.176,0.088-0.264,0.264-0.264h0.696c0.176,0,0.264,0.088,0.264,0.264v0.792
		c0,1.6,0.776,2.4,2.328,2.4h2.496c1.552,0,2.328-0.808,2.328-2.424v-1.008c0-0.704-0.288-1.256-0.864-1.656
		s-1.272-0.688-2.088-0.864c-0.816-0.176-1.637-0.36-2.46-0.552c-0.824-0.192-1.524-0.544-2.101-1.056
		c-0.575-0.512-0.863-1.2-0.863-2.064v-1.32c0-1.056,0.304-1.888,0.912-2.496c0.607-0.608,1.432-0.912,2.472-0.912h2.784
		c1.04,0,1.863,0.304,2.472,0.912c0.607,0.608,0.912,1.44,0.912,2.496v0.672c0,0.176-0.088,0.264-0.264,0.264h-0.696
		c-0.177,0-0.264-0.088-0.264-0.264v-0.6c0-1.6-0.776-2.4-2.328-2.4h-2.473c-1.536,0-2.304,0.816-2.304,2.448v1.2
		c0,1.104,0.984,1.848,2.952,2.232c0.815,0.16,1.636,0.344,2.46,0.552s1.523,0.584,2.1,1.128s0.864,1.28,0.864,2.208v1.176
		c0,1.056-0.304,1.888-0.912,2.496c-0.608,0.608-1.432,0.912-2.472,0.912H176.3c-1.04,0-1.864-0.304-2.472-0.912
		C173.22,20.177,172.916,19.345,172.916,18.289z"/>
	<path d="M189.86,21.697h-0.696c-0.177,0-0.264-0.096-0.264-0.288V7.561c0-0.144-0.081-0.216-0.24-0.216h-3.48
		c-0.191,0-0.288-0.088-0.288-0.264V6.529c0-0.176,0.097-0.264,0.288-0.264h8.641c0.191,0,0.288,0.088,0.288,0.264v0.552
		c0,0.176-0.097,0.264-0.288,0.264h-3.48c-0.16,0-0.24,0.072-0.24,0.216v13.848C190.1,21.601,190.02,21.697,189.86,21.697z"/>
	<path d="M204.932,6.265h0.673c0.176,0,0.264,0.088,0.264,0.264v11.76c0,1.056-0.3,1.888-0.9,2.496
		c-0.6,0.608-1.42,0.912-2.46,0.912h-2.688c-1.04,0-1.86-0.304-2.46-0.912c-0.601-0.608-0.9-1.44-0.9-2.496V6.553
		c0-0.192,0.08-0.288,0.24-0.288h0.696c0.176,0,0.264,0.096,0.264,0.288v11.688c0,0.752,0.191,1.336,0.576,1.752
		c0.384,0.417,0.943,0.624,1.68,0.624h2.472c0.736,0,1.3-0.204,1.692-0.612c0.392-0.408,0.588-0.996,0.588-1.764V6.553
		C204.668,6.361,204.756,6.265,204.932,6.265z"/>
	<path d="M209.828,21.409V6.553c0-0.192,0.08-0.288,0.24-0.288h5.928c1.04,0,1.86,0.304,2.46,0.912c0.6,0.608,0.9,1.44,0.9,2.496
		v8.616c0,1.056-0.301,1.888-0.9,2.496c-0.6,0.608-1.42,0.912-2.46,0.912h-5.928C209.908,21.697,209.828,21.601,209.828,21.409z
		 M211.269,20.617h4.607c0.736,0,1.3-0.204,1.692-0.612c0.392-0.408,0.588-0.996,0.588-1.764v-8.52c0-0.768-0.196-1.356-0.588-1.764
		c-0.393-0.408-0.956-0.612-1.692-0.612h-4.607c-0.16,0-0.24,0.072-0.24,0.216v12.84C211.028,20.545,211.108,20.617,211.269,20.617z
		"/>
	<path d="M224.517,6.553v14.856c0,0.192-0.089,0.288-0.265,0.288h-0.695c-0.16,0-0.24-0.096-0.24-0.288V6.553
		c0-0.192,0.08-0.288,0.24-0.288h0.695C224.428,6.265,224.517,6.361,224.517,6.553z"/>
	<path d="M234.788,21.697h-2.952c-1.04,0-1.86-0.304-2.46-0.912c-0.601-0.608-0.9-1.44-0.9-2.496V9.673c0-1.056,0.3-1.888,0.9-2.496
		c0.6-0.608,1.42-0.912,2.46-0.912h2.952c1.04,0,1.859,0.304,2.46,0.912c0.6,0.608,0.899,1.44,0.899,2.496v8.616
		c0,1.056-0.3,1.888-0.899,2.496C236.647,21.394,235.828,21.697,234.788,21.697z M231.932,20.617h2.736
		c0.735,0,1.3-0.204,1.691-0.612c0.393-0.408,0.589-0.996,0.589-1.764v-8.52c0-0.768-0.196-1.356-0.589-1.764
		c-0.392-0.408-0.956-0.612-1.691-0.612h-2.736c-0.736,0-1.296,0.208-1.68,0.624c-0.384,0.417-0.576,1-0.576,1.752v8.52
		c0,0.752,0.192,1.336,0.576,1.752C230.636,20.41,231.195,20.617,231.932,20.617z"/>
</g>
<circle cx="13.773" cy="13.867" r="12.607"/>
</svg>
